<svg xmlns="http://www.w3.org/2000/svg" width="106" height="32" viewBox="0 0 106 32"><defs><style>.a{fill:#f5c518;}.b{font-size:12px;font-family:OpenSans-Bold, Open Sans;font-weight:700;}</style></defs><g transform="translate(-76 -19)"><g transform="translate(76 19)"><rect class="a" width="64" height="32" rx="4"/><g transform="translate(8 7)"><path d="M0,18H5V0H0Z"/><path d="M15.673,0,14.553,8.408l-.7-4.573q-.3-2.2-.58-3.835H7V18h4.242l.016-11.886L13.044,18h3.02l1.7-12.148L17.771,18H22V0Z"/><path d="M24,18V0h7.8A3.185,3.185,0,0,1,35,3.177V14.823A3.185,3.185,0,0,1,31.8,18ZM29.832,3.24a2.688,2.688,0,0,0-1.13-.159V14.891c.729,0,1.177-.131,1.345-.4a5.471,5.471,0,0,0,.254-2.2V5.308a8.591,8.591,0,0,0-.086-1.564A.736.736,0,0,0,29.832,3.24Z"/><path d="M44.43,4.507h.32A3.2,3.2,0,0,1,48,7.645v7.217A3.2,3.2,0,0,1,44.75,18h-.32a3.282,3.282,0,0,1-2.658-1.332l-.288,1.1H37V0h4.784V5.781A3.387,3.387,0,0,1,44.43,4.507Zm-1.024,8.777V9.019a4.207,4.207,0,0,0-.139-1.38.879.879,0,0,0-.734-.35c-.264,0-.671.111-.75.3v7.22c.09.206.479.32.75.32s.667-.111.749-.32A5.478,5.478,0,0,0,43.406,13.284Z"/></g></g><text class="b" transform="translate(147 40)"><tspan x="0" y="0">Social</tspan></text></g></svg>